<svg id="Capa_1" enable-background="new 0 0 335.464 335.464" height="512" viewBox="0 0 335.464 335.464" width="512" xmlns="http://www.w3.org/2000/svg"><g><g enable-background="new"><path d="m8.101 155.425c-.436 1.319-.683 2.659-.752 4.013.064-22.598.128-45.194.192-67.792.069-1.354.316-2.695.752-4.013 6.291-18.979 49.27-29.862 117.885-29.863 71.977 0 126.136 9.106 160.95 27.085 1.847.953 3.616 1.92 5.302 2.894 4.263 2.461 8.022 4.977 11.335 7.51-.064 22.598-.128 45.194-.192 67.792-3.314-2.532-7.072-5.049-11.335-7.51-1.686-.974-3.455-1.94-5.302-2.894-34.814-17.979-88.972-27.085-160.95-27.085-68.615 0-111.594 10.883-117.885 29.863z" fill="#e56353"/><g fill="#d5d6db"><path d="m172.939 135.002c-.086.252-.126.503-.126.753l.192-67.792c.001-.249.041-.5.126-.753.72-2.101 4.555-3.841 8.23-3.589l-.192 67.792c-3.675-.252-7.51 1.488-8.23 3.589z"/><path d="m80.376 133.686c-9.581.277-19.089 1.471-28.003 3.528.067-22.598.131-45.194.195-67.792 8.914-2.056 18.421-3.25 28.001-3.527 5.307-.153 10.618.307 15.894.117 3.174-.121 7.052-.236 9.364 1.099.624.36 1.134.826 1.484 1.426.252.438.367.889.366 1.341l-.192 67.792c.001-.452-.114-.903-.366-1.341-.351-.6-.86-1.066-1.484-1.426-2.312-1.335-6.19-1.219-9.364-1.099-5.277.189-10.587-.271-15.895-.118z"/><path d="m163.639 133.117c-3.513-2.028-8.77-3.107-13.685-2.596l.192-67.792c4.915-.511 10.172.567 13.685 2.596 1.691.976 2.978 2.173 3.628 3.517.363.746.531 1.505.529 2.261l-.192 67.792c.002-.756-.166-1.515-.529-2.261-.65-1.345-1.937-2.541-3.628-3.517z"/><path d="m136.462 139.519c-.022.203-.034.407-.034.611l.192-67.792c.001-.204.012-.407.034-.611.474-4.274 6.211-8.241 13.492-8.998l-.192 67.792c-7.28.757-13.018 4.725-13.492 8.998z"/></g><path d="m178.469 76.56-.192 67.792c.004-1.347-1.141-2.752-2.366-3.967-1.452-1.446-3.103-3.007-3.099-4.63l.192-67.792c-.005 1.623 1.647 3.184 3.099 4.63 1.226 1.215 2.37 2.62 2.366 3.967z" fill="#e56353"/><path d="m178.277 144.351c-.001.28-.051.557-.16.829.064-22.598.128-45.194.192-67.792.109-.272.159-.549.16-.829-.057 20.338-.135 47.455-.192 67.792z" fill="#d5d6db"/><path d="m173.487 149.338c-.114.228-.167.456-.168.681l.192-67.792c.001-.225.054-.453.168-.681.693-1.38 3.179-2.191 4.23-3.489.178-.219.309-.442.4-.668-.064 22.598-.128 45.194-.192 67.792-.091.226-.222.45-.4.668-1.051 1.298-3.537 2.11-4.23 3.489z" fill="#d5d6db"/><path d="m167.988 71.102-.192 67.792c-.021 7.307-15.984 14.408-26.209 8.504-.374-.216-.742-.45-1.1-.702-2.619-1.826-4.066-4.196-4.06-6.566l.192-67.792c-.007 2.37 1.441 4.739 4.06 6.565.358.252.725.486 1.099.702 10.226 5.905 26.189-1.196 26.21-8.503z" fill="#e56353"/><path d="m163.831 65.325c1.691.976 2.978 2.173 3.628 3.517 3.872 7.959-14.398 17.278-25.679 10.764-.374-.216-.742-.45-1.099-.702-2.844-1.984-4.307-4.607-4.025-7.177.474-4.274 6.211-8.241 13.492-8.999 4.914-.51 10.17.569 13.683 2.597z" fill="#e56353"/><path d="m270.925 152.909c-6.482-3.742-40.586-18.145-89.756-21.496l.192-67.792c49.17 3.351 83.275 17.754 89.756 21.496.563.325.918.57 1.057.72.268.29.392.572.391.846l-.192 67.792c.001-.274-.124-.556-.391-.846-.138-.149-.493-.394-1.057-.72z" fill="#d5d6db"/><path d="m131.076 149.485c.056-19.953.113-39.904.169-59.858 0-.003 0-.007.001-.01-.057 19.957-.114 39.911-.17 59.868z" fill="#d5d6db"/><path d="m17.534 155.425c-1.833 2.631-2.77 5.502-2.778 8.362l.192-67.792c.008-2.86.945-5.731 2.778-8.362 5.374-7.754 17.218-13.515 30.274-17.068 1.503-.407 3.027-.788 4.568-1.144-.064 22.598-.128 45.194-.195 67.792-1.54.355-3.063.736-4.565 1.143-13.056 3.553-24.9 9.315-30.274 17.069z" fill="#d5d6db"/><path d="m107.676 69.877-.192 67.792c-.004 1.494-1.28 3.003-3.09 4.096-2.358 1.443-5.544 2.317-8.621 3.165-3.575.992-7.165 1.975-10.755 2.957-4.725 1.298-9.45 2.597-14.19 3.904-9.387 2.579-18.915 5.203-26.628 9.233-7.474 3.905-13.126 9.367-13.143 15.189l.192-67.792c.017-5.822 5.669-11.284 13.143-15.189 7.713-4.03 17.241-6.654 26.628-9.233 4.74-1.307 9.465-2.606 14.19-3.904 3.59-.983 7.18-1.966 10.755-2.957 3.077-.848 6.264-1.722 8.621-3.165 1.81-1.094 3.086-2.602 3.09-4.096z" fill="#e56353"/><g fill="#d5d6db"><path d="m84.429 153.964c-9.722 3.913-19.46 7.817-29.198 11.721.064-22.598.128-45.194.192-67.792 9.738-3.904 19.476-7.808 29.198-11.721.001 0 .001-.001.002-.001-.064 22.598-.128 45.194-.192 67.792-.001 0-.002.001-.002.001z"/><path d="m55.231 165.685c-4.443 1.788-9.296 3.903-9.305 7.283l.192-67.792c.01-3.38 4.862-5.494 9.306-7.283-.065 22.599-.13 45.194-.193 67.792z"/><path d="m31.072 176.776c-.011-.188-.017-.375-.016-.562l.192-67.792c-.001.187.005.374.016.562-.063 22.598-.128 45.194-.192 67.792z"/><path d="m31.097 177.321c.001-.185-.011-.369-.025-.545.064-22.598.128-45.194.192-67.792.014.176.025.36.025.545-.057 20.338-.134 47.454-.192 67.792z"/></g><path d="m31.289 109.529-.192 67.792c-.002.726-.192 1.472-1.194 1.853-1.351.514-3.16-.063-4.409-.676-.517-.258-1.013-.525-1.492-.801-6.239-3.602-9.26-8.736-9.245-13.909l.192-67.792c-.015 5.173 3.006 10.307 9.245 13.909.479.277.976.543 1.492.801 1.249.613 3.058 1.19 4.409.676 1.002-.38 1.192-1.127 1.194-1.853z" fill="#e56353"/><path d="m113.524 148.87c-11.793-1.794-20.645 1.704-29.094 5.094.064-22.598.128-45.194.192-67.792 8.448-3.39 17.301-6.888 29.094-5.094-.063 22.593-.127 45.183-.191 67.776.05-17.513.1-35.024.149-52.537.014-5.08.043-10.159.043-15.239 4.672.714 8.91 2.096 12.234 4.015h.001c-.024 2.642-.015 5.285-.023 7.927-.055 19.95-.113 39.898-.169 59.848.064-22.593.128-45.183.192-67.775 2.219 1.281 4.031 2.802 5.292 4.523 0 0 0 0 .001.001v.006.002c-.013 4.725-.027 9.449-.04 14.174-.014 5.089-.029 10.178-.043 15.267-.036 12.779-.072 25.558-.108 38.337.064-22.596.128-45.19.192-67.786 1.619 2.204 2.279 4.507 2.273 6.849l-.192 67.792c.007-2.342-.654-4.645-2.273-6.85-1.262-1.721-3.074-3.242-5.293-4.523-3.326-1.92-7.565-3.302-12.237-4.015z" fill="#d5d6db"/><path d="m133.518 96.465-.192 67.792c-.002.743-.071 1.49-.198 2.24-.255 1.53-.383 3.064-.387 4.597l.192-67.792c.004-1.533.132-3.068.387-4.597.127-.749.196-1.497.198-2.24z" fill="#e56353"/><path d="m135.371 183.483c-1.741-4.054-2.643-8.219-2.631-12.389l.192-67.792c-.012 4.17.89 8.335 2.631 12.389v.001c-.063 22.598-.128 45.194-.192 67.791 0 .001 0 .001 0 0z" fill="#d5d6db"/><path d="m136.656 187.712c-.242-1.433-.685-2.84-1.285-4.228.064-22.598.128-45.194.192-67.792.599 1.388 1.043 2.795 1.285 4.228.107.661.161 1.33.159 1.999l-.192 67.792c.002-.669-.052-1.337-.159-1.999z" fill="#d5d6db"/><path d="m137.008 121.919-.192 67.792c-.011 3.968-1.995 7.98-6.641 10.85-7.772 4.788-21.156 5.166-31.693 2.678-9.687-2.283-17.537-6.507-24.986-10.808-.642-.37-1.28-.741-1.917-1.112-6.7-3.868-13.384-7.745-20.068-11.622-1.811-1.046-3.375-2.254-4.379-3.625-.844-1.144-1.21-2.172-1.207-3.105l.192-67.792c-.003.932.363 1.96 1.207 3.104 1.004 1.37 2.567 2.579 4.379 3.625 6.684 3.877 13.368 7.754 20.068 11.622.636.37 1.275.741 1.917 1.112 7.449 4.301 15.3 8.525 24.986 10.808 10.537 2.488 23.921 2.11 31.693-2.678 4.646-2.869 6.629-6.881 6.641-10.849z" fill="#e56353"/><path d="m7.329 160.183.192-67.792c-.026 9.267 8.169 19.095 21.484 26.783 7.754 4.477 17.245 8.228 29.028 11.07l-.192 67.792c-11.783-2.842-21.274-6.594-29.028-11.07-13.315-7.688-21.51-17.515-21.484-26.783z" fill="#d5d6db"/><path d="m7.349 159.438c-.013.248-.019.496-.02.745l.192-67.792c.001-.249.007-.497.02-.745-.064 22.599-.128 45.194-.192 67.792z" fill="#e56353"/><path d="m272.566 86.683-.192 67.792c-.01 3.617-21.984 5.809-26.207 6.161-7.375.613-15.112.352-21.848-1.506-3.851-1.055-7.253-2.606-11.011-3.787-7.329-2.308-16.004-3.147-24.218-2.353-3.345.316-6.735.911-10.068.514-1.44-.176-2.85-.629-3.907-1.239-1.084-.626-1.798-1.417-1.795-2.245l.192-67.792c-.002.828.712 1.619 1.795 2.245 1.057.61 2.466 1.063 3.907 1.239 3.333.397 6.723-.198 10.068-.514 8.214-.793 16.889.045 24.218 2.353 3.758 1.181 7.16 2.732 11.011 3.787 6.735 1.857 14.473 2.119 21.848 1.506 4.223-.352 26.196-2.544 26.207-6.161z" fill="#e56353"/><path d="m271.118 85.118c.563.325.918.57 1.057.72 3.806 4.12-21.273 6.627-25.816 7.006-7.375.613-15.112.352-21.848-1.506-3.851-1.055-7.253-2.606-11.011-3.787-7.329-2.308-16.004-3.147-24.218-2.353-3.345.316-6.735.911-10.068.514-1.44-.176-2.85-.629-3.907-1.239-1.378-.796-2.159-1.86-1.627-2.926.693-1.38 3.179-2.191 4.23-3.489 1.422-1.749-.115-3.787-1.805-5.464-1.675-1.668-3.616-3.489-2.972-5.383.72-2.101 4.555-3.841 8.23-3.589 49.168 3.351 83.273 17.754 89.755 21.496z" fill="#e56353"/><path d="m152.299 171.023c-1.436 2.258-2.115 4.63-2.121 7.01l.192-67.792c.007-2.379.685-4.751 2.121-7.01-.057 20.338 5.519 48.272-.192 67.792z" fill="#d5d6db"/><path d="m320.033 180.192c-3.628-5.475-8.88-11.349-16.46-17.142.064-22.598.128-45.194.192-67.792 7.581 5.793 12.832 11.667 16.46 17.142-.063 22.598-.128 45.194-.192 67.792z" fill="#e56353"/><path d="m201.896 157.886c-18.982-4.111-42.623 2.155-49.597 13.137l.192-67.792c6.974-10.982 30.615-17.249 49.597-13.137 9.6 2.074 17.735 6.357 27.781 7.52 15.358 1.767 31.514-4.166 46.426-1.38 4.272.793 8.048 2.261 11.242 4.105 2.328 1.344 4.347 2.888 6.023 4.515 2.498 2.421 4.345 5.03 5.937 7.698-.064 22.598-.128 45.194-.192 67.792-1.592-2.668-3.438-5.276-5.937-7.698-1.676-1.627-3.694-3.171-6.023-4.515-3.194-1.844-6.97-3.312-11.242-4.105-14.912-2.786-31.067 3.147-46.426 1.38-10.046-1.164-18.18-5.447-27.781-7.52z" fill="#d5d6db"/><path d="m105.826 67.11c.624.36 1.134.826 1.484 1.426 1.085 1.884-.367 4.012-2.725 5.437-2.358 1.443-5.544 2.317-8.621 3.165-3.575.992-7.165 1.975-10.755 2.957-4.725 1.298-9.45 2.597-14.19 3.904-9.387 2.579-18.915 5.203-26.628 9.233-7.714 4.03-13.488 9.72-13.127 15.752.067.866.089 1.92-1.17 2.398-1.351.514-3.16-.063-4.409-.676-.517-.258-1.013-.525-1.492-.801-9.688-5.593-11.617-14.883-6.467-22.272 5.374-7.754 17.218-13.515 30.274-17.068 10.196-2.759 21.332-4.346 32.569-4.671 5.307-.153 10.618.306 15.893.117 3.174-.12 7.052-.235 9.364 1.099z" fill="#e56353"/><path d="m299.304 180.343c-.312-1.137.008-2.752.011-3.931.012-4.298.024-8.596.037-12.894.016-5.607.032-11.214.048-16.821.032-11.382.065-22.763.097-34.145.951 1.594 1.811 3.209 2.664 4.817.252.471.504.943.753 1.418-.064 22.598-.128 45.194-.192 67.792-.249-.474-.501-.947-.753-1.418-.854-1.61-1.714-3.225-2.665-4.818z" fill="#d5d6db"/><path d="m302.721 186.578c-.097-.397.003-.953.004-1.361.01-3.499.02-6.998.03-10.498.011-3.953.022-7.906.034-11.859.041-14.692.083-29.382.125-44.074 1.746 3.323 3.355 6.728 3.828 10.146-.064 22.598-.128 45.194-.192 67.792-.474-3.418-2.083-6.823-3.829-10.146z" fill="#d5d6db"/><path d="m306.549 196.724c-.032-.472.003-1.105.004-1.578.002-.845.005-1.69.007-2.534.001-.526.003-1.228.005-1.755.001-.266.002-.62.003-.885.006-2.249.013-4.499.019-6.748.051-18.098.103-36.193.154-54.291.093.669.142 1.338.14 2.008l-.192 67.792c.002-.671-.047-1.34-.14-2.009z" fill="#d5d6db"/><path d="m326.249 193.157c-1.167-3.82-3.088-8.245-6.216-12.965.064-22.598.128-45.194.192-67.792 3.128 4.72 5.049 9.145 6.216 12.965.581 1.899 1.041 4.074 1.343 6.464-.064 22.598-.128 45.194-.192 67.792-.302-2.39-.762-4.565-1.343-6.464z" fill="#e56353"/><path d="m125.952 85.093c2.219 1.281 4.031 2.802 5.293 4.523 2.133 2.903 2.602 5.978 2.075 9.089-.948 5.689-.138 11.442 2.244 16.987.599 1.389 1.043 2.795 1.285 4.229.742 4.58-1.052 9.494-6.481 12.848-7.772 4.788-21.156 5.166-31.693 2.678-9.687-2.283-17.537-6.507-24.986-10.808-.642-.37-1.28-.741-1.917-1.112-6.7-3.868-13.384-7.745-20.068-11.622-1.811-1.046-3.375-2.254-4.379-3.625-3.906-5.293 2.429-8.106 8.098-10.387 9.738-3.904 19.476-7.808 29.198-11.721 8.449-3.39 17.302-6.889 29.096-5.094 4.672.714 8.91 2.096 12.235 4.015z" fill="#e56353"/><path d="m327.592 199.621c-.04-.655.004-1.309.006-1.964.002-.653.004-1.307.006-1.96.06-21.29.121-42.578.181-63.868.268 2.123.412 4.415.405 6.834l-.192 67.792c.006-2.419-.138-4.711-.406-6.834z" fill="#e56353"/><path d="m99.284 155.319-.192 67.792c-6.985-6.507-14.452-11.536-21.174-15.418-10.68-6.166-19.484-9.435-20.077-9.657l.192-67.792c.594.222 9.398 3.491 20.077 9.657 6.722 3.882 14.189 8.912 21.174 15.418z" fill="#d5d6db"/><path d="m306.881 130.939-.192 67.792c-.003 1.004-.12 2.008-.378 3.01-.929 3.616-4.208 7.294-9.348 9.467-5.971 2.539-8.736 2.078-12.306.017-.868-.501-1.783-1.096-2.803-1.766-.831-.547-1.692-1.078-2.582-1.592-9.527-5.5-22.347-9.056-35.789-9.633-22.903-.983-46.617 6.122-68.217 1.524-4.892-1.042-9.252-2.725-12.909-4.836-7.626-4.403-12.196-10.67-12.179-16.889l.192-67.792c-.018 6.219 4.553 12.486 12.179 16.889 3.656 2.111 8.016 3.794 12.909 4.836 21.6 4.598 45.314-2.507 68.217-1.524 13.442.577 26.262 4.133 35.789 9.633.89.514 1.752 1.045 2.582 1.592 1.021.67 1.936 1.265 2.803 1.766 3.569 2.061 6.334 2.522 12.306-.017 5.14-2.173 8.419-5.852 9.348-9.467.258-1.002.375-2.006.378-3.01z" fill="#e56353"/><path d="m287.537 100.339c2.328 1.344 4.347 2.888 6.023 4.515 3.991 3.868 6.319 8.214 8.601 12.515 2.879 5.383 5.775 11.009 4.343 16.581-.929 3.616-4.208 7.294-9.348 9.467-5.971 2.539-8.736 2.078-12.306.017-.868-.501-1.783-1.096-2.803-1.766-.83-.547-1.692-1.078-2.582-1.592-9.527-5.5-22.347-9.056-35.789-9.633-22.903-.983-46.617 6.122-68.217 1.524-4.892-1.042-9.252-2.725-12.909-4.836-10.543-6.087-15.247-15.738-10.058-23.899 6.974-10.982 30.615-17.249 49.597-13.137 9.6 2.074 17.735 6.356 27.781 7.52 15.358 1.767 31.513-4.166 46.426-1.38 4.271.791 8.047 2.26 11.241 4.104z" fill="#e56353"/><g fill="#d5d6db"><path d="m293.405 222.615c-.083-.078-.168-.156-.254-.234.064-22.598.128-45.194.192-67.792.087.077.172.155.254.233-.063 22.599-.128 45.195-.192 67.793z"/><path d="m148.898 202.887c-16.094.27-28.087 10.008-27.926 19.322l.192-67.792c-.161-9.314 11.832-19.052 27.926-19.322 18.351-.298 31.535 10.675 49.372 13.245 12.214 1.749 23.545-1.127 32.344-5.861 6.549-3.517 12.399-6.808 21.895-3.805l-.192 67.792c-9.496-3.002-15.346.289-21.895 3.805-8.799 4.733-20.131 7.61-32.344 5.861-17.837-2.57-31.021-13.543-49.372-13.245z"/><path d="m293.405 222.615c.064-22.598.128-45.194.192-67.792.829.784 1.456 1.622 1.908 2.499-.064 22.598-.128 45.194-.192 67.792-.451-.877-1.079-1.715-1.908-2.499z"/><path d="m295.427 225.342c-.036-.077-.074-.153-.113-.229.064-22.598.128-45.194.192-67.792.039.076.077.152.113.229-.064 22.599-.129 45.194-.192 67.792z"/><path d="m276.322 219.512c-7.075 1.24-11.525 4.381-14.209 8.082.064-22.598.128-45.194.192-67.792 2.684-3.701 7.134-6.842 14.209-8.082 5.429-.956 11.201-.619 15.105 1.635.625.361 1.202.77 1.722 1.232.001.001.001.001.002.002-.064 22.598-.128 45.194-.192 67.792-.001-.001-.001-.001-.002-.002-.52-.461-1.097-.871-1.722-1.232-3.904-2.253-9.676-2.591-15.105-1.635z"/><path d="m261.993 227.762c.064-22.598.128-45.194.192-67.792.04-.056.08-.112.12-.168-.064 22.598-.128 45.194-.192 67.792-.041.056-.081.112-.12.168z"/><path d="m295.427 225.342c-.041-.183.001-.437.002-.624.001-.198.001-.463.002-.661.001-.461.003-.922.004-1.383.003-.888.005-1.776.008-2.665.059-20.82.118-41.638.177-62.459.427.896.676 1.832.771 2.792-.064 22.598-.128 45.194-.192 67.792-.097-.96-.345-1.896-.772-2.792z"/><path d="m296.237 228.719c-.007-.196-.02-.391-.039-.585.064-22.598.128-45.194.192-67.792.019.194.032.389.039.585-.064 22.598-.129 45.194-.192 67.792z"/><path d="m296.237 228.719c-.034-2.107.012-4.213.018-6.32s.012-4.213.018-6.32c.052-18.385.104-36.768.156-55.153.004.123.006.247.006.37l-.192 67.792c0-.123-.002-.246-.006-.369z"/><path d="m261.993 227.762c-.797 1.126-1.433 2.302-1.933 3.491.064-22.598.129-45.195.193-67.793.499-1.188 1.135-2.363 1.932-3.489-.059 20.893-.119 41.783-.178 62.675-.002.852-.005 1.704-.007 2.556 0 .101-.001.235-.001.335s-.001.234-.001.334c-.001.532-.003 1.064-.005 1.597 0 .088.026.21 0 .294z"/><path d="m259.004 234.57c-.4 1.801-.601 3.616-.606 5.432l.192-67.792c.005-1.816.206-3.632.606-5.432.246-1.097.592-2.213 1.057-3.319-.064 22.598-.128 45.195-.193 67.793-.464 1.106-.81 2.222-1.056 3.318z"/></g><path d="m235.313 245.587.192-67.792c.017-5.965 3.074-11.919 6.11-17.681 3.712-7.06 8.512-14.228 11.087-21.441l-.192 67.792c-2.574 7.213-7.375 14.381-11.087 21.441-3.036 5.762-6.093 11.717-6.11 17.681z" fill="#e56353"/><path d="m235.786 249.564c-.33-1.324-.477-2.65-.473-3.976l.192-67.792c-.004 1.325.143 2.651.473 3.976v.001c-.064 22.598-.128 45.194-.192 67.792 0 0 0 0 0-.001z" fill="#d5d6db"/><path d="m238.904 260.934c.011-3.642-2.197-7.665-3.118-11.368.064-22.598.128-45.194.192-67.792.92 3.703 3.128 7.726 3.118 11.368-.057 20.338-.134 47.454-.192 67.792z" fill="#d5d6db"/><path d="m239.096 193.142-.192 67.792c-.006 2.22-.837 4.299-3.285 6.078-5.658 4.12-16.525 3.814-25.389 2.615-24.808-3.356-47.931-10.804-65.97-21.219-.911-.526-1.811-1.061-2.696-1.602-11.105-6.771-20.446-15.274-20.592-24.597l.192-67.792c.146 9.323 9.487 17.825 20.592 24.597.885.541 1.785 1.076 2.696 1.602 18.038 10.414 41.161 17.863 65.97 21.219 8.864 1.199 19.731 1.506 25.389-2.615 2.449-1.779 3.279-3.858 3.285-6.078z" fill="#e56353"/><path d="m296.435 161.297-.192 67.792c-.017 6.025-5.563 12.809-10.572 16.905-3.8 3.099-15.83 12.289-21.993 8.731-.974-.562-1.802-1.443-2.427-2.717-1.902-3.902-2.863-7.955-2.852-12.004l.192-67.792c-.012 4.049.95 8.101 2.852 12.004.625 1.274 1.453 2.154 2.427 2.717 6.163 3.558 18.194-5.632 21.993-8.731 5.008-4.096 10.555-10.88 10.572-16.905z" fill="#e56353"/><path d="m302.862 189.544-.192 67.792c-14.956 11.568-36.057 18.295-62.712 19.981-3.983.252-7.999.379-11.937.37-37.831 0-68.299-11.732-90.097-24.317-24.985-14.425-38.581-29.97-38.832-30.259l.192-67.792c.251.289 13.847 15.834 38.832 30.259 21.798 12.585 52.266 24.317 90.097 24.317 3.938.009 7.954-.117 11.937-.37 26.655-1.686 47.756-8.412 62.712-19.981z" fill="#d5d6db"/><path d="m328.189 138.663-.192 67.792c-.044 15.457-6.232 36.106-25.327 50.882l.192-67.792c19.095-14.776 25.283-35.425 25.327-50.882z" fill="#d5d6db"/><path d="m291.62 153.356c.625.361 1.202.77 1.722 1.232 7.65 6.807-.444 17.861-7.479 23.614-3.8 3.099-15.83 12.289-21.993 8.731-.974-.562-1.802-1.443-2.427-2.717-2.756-5.653-3.537-11.622-2.246-17.438 1.397-6.221 5.997-13.074 17.318-15.058 5.428-.955 11.2-.618 15.105 1.636z" fill="#e56353"/><path d="m252.702 138.674c-2.574 7.213-7.375 14.381-11.087 21.441-3.712 7.042-7.453 14.372-5.637 21.657 1.481 5.96 6.298 12.749-.167 17.447-5.658 4.12-16.525 3.814-25.389 2.615-24.808-3.356-47.931-10.804-65.97-21.219-.911-.526-1.811-1.061-2.696-1.602-11.105-6.771-20.446-15.274-20.592-24.597-.162-9.314 11.832-19.052 27.926-19.322 18.351-.298 31.535 10.675 49.372 13.245 12.214 1.749 23.545-1.127 32.344-5.861 6.55-3.515 12.4-6.806 21.896-3.804z" fill="#e56353"/><path d="m302.862 189.544c-14.956 11.568-36.057 18.295-62.712 19.981-3.983.252-7.999.379-11.937.37-37.831 0-68.299-11.732-90.097-24.317-24.985-14.425-38.581-29.97-38.832-30.259-6.985-6.507-14.452-11.536-21.174-15.418-10.68-6.166-19.484-9.435-20.077-9.657-11.783-2.843-21.274-6.594-29.028-11.07-15.625-9.021-24.2-20.989-20.712-31.541 6.291-18.98 49.27-29.863 117.884-29.863 71.977 0 126.136 9.106 160.95 27.085 1.847.953 3.616 1.92 5.303 2.894 22.422 12.944 30.9 27.428 34.012 37.617 4.392 14.363 1.869 44.486-23.58 64.178zm-150.371-86.313c-5.19 8.161-.486 17.812 10.057 23.899 3.656 2.111 8.016 3.794 12.909 4.836 21.6 4.598 45.314-2.507 68.217-1.524 13.442.577 26.262 4.133 35.789 9.633.89.514 1.752 1.045 2.582 1.592 1.021.67 1.936 1.265 2.803 1.766 3.57 2.061 6.334 2.522 12.306-.017 5.14-2.173 8.419-5.852 9.348-9.467 1.432-5.572-1.464-11.198-4.343-16.581-2.281-4.301-4.61-8.647-8.601-12.515-1.676-1.627-3.694-3.171-6.023-4.515-3.194-1.844-6.97-3.312-11.242-4.105-14.912-2.786-31.067 3.147-46.426 1.38-10.046-1.163-18.18-5.446-27.781-7.52-18.98-4.11-42.621 2.156-49.595 13.138m57.932 98.603c8.864 1.199 19.731 1.506 25.389-2.615 6.465-4.698 1.647-11.487.166-17.447-1.816-7.285 1.926-14.616 5.637-21.658 3.712-7.06 8.512-14.228 11.087-21.441-9.496-3.002-15.346.289-21.895 3.805-8.799 4.733-20.131 7.61-32.344 5.861-17.837-2.57-31.021-13.543-49.372-13.245-16.094.27-28.087 10.008-27.926 19.322.146 9.323 9.487 17.825 20.592 24.597.885.541 1.784 1.076 2.696 1.602 18.038 10.415 41.161 17.863 65.97 21.219m-111.749-66.387c10.536 2.488 23.921 2.11 31.693-2.678 5.429-3.354 7.223-8.268 6.481-12.848-.242-1.434-.685-2.84-1.285-4.229-2.381-5.545-3.192-11.298-2.244-16.987.528-3.111.059-6.185-2.075-9.088-1.262-1.721-3.074-3.242-5.293-4.523-3.325-1.92-7.563-3.302-12.236-4.015-11.794-1.794-20.647 1.704-29.096 5.094-9.722 3.913-19.46 7.817-29.198 11.721-5.669 2.281-12.004 5.094-8.098 10.387 1.004 1.37 2.567 2.579 4.379 3.625 6.684 3.877 13.368 7.754 20.068 11.622.636.37 1.275.741 1.916 1.112 7.451 4.3 15.302 8.524 24.988 10.807m82.687-71.825c-3.675-.252-7.51 1.488-8.23 3.589-.643 1.893 1.298 3.715 2.972 5.383 1.691 1.677 3.228 3.715 1.805 5.464-1.051 1.298-3.537 2.11-4.23 3.489-.532 1.066.249 2.13 1.627 2.926 1.057.61 2.466 1.063 3.907 1.239 3.333.397 6.723-.198 10.068-.514 8.214-.793 16.889.045 24.218 2.353 3.758 1.181 7.16 2.732 11.011 3.787 6.735 1.857 14.473 2.119 21.848 1.506 4.543-.379 29.621-2.886 25.816-7.006-.138-.15-.493-.395-1.057-.72-6.48-3.742-40.585-18.145-89.755-21.496m-151.266 47.761c1.258-.478 1.237-1.533 1.17-2.398-.361-6.032 5.413-11.721 13.127-15.752 7.713-4.03 17.241-6.654 26.628-9.233 4.74-1.308 9.465-2.606 14.19-3.904 3.59-.983 7.18-1.966 10.755-2.958 3.077-.848 6.264-1.722 8.621-3.165 2.358-1.425 3.809-3.553 2.725-5.437-.351-.6-.86-1.066-1.484-1.426-2.312-1.335-6.19-1.219-9.364-1.099-5.276.189-10.586-.27-15.894-.117-11.237.325-22.374 1.912-32.569 4.671-13.055 3.553-24.9 9.314-30.273 17.068-5.15 7.389-3.221 16.678 6.467 22.272.479.277.976.543 1.492.801 1.249.613 3.058 1.19 4.409.677m233.774 75.55c6.163 3.558 18.193-5.632 21.993-8.731 7.035-5.753 15.129-16.807 7.479-23.614-.52-.461-1.097-.871-1.722-1.232-3.904-2.254-9.676-2.591-15.105-1.635-11.321 1.984-15.921 8.836-17.318 15.057-1.29 5.816-.51 11.784 2.246 17.438.625 1.274 1.453 2.154 2.427 2.717m-113.723-124.204c-7.28.757-13.018 4.725-13.492 8.998-.281 2.57 1.181 5.193 4.025 7.177.358.252.725.486 1.1.702 11.282 6.514 29.551-2.805 25.679-10.764-.65-1.345-1.937-2.541-3.628-3.517-3.512-2.028-8.768-3.107-13.684-2.596" fill="#fff"/><path d="m241.069 211.346c-46.338 2.932-82.837-10.567-108.025-25.109-26.255-15.158-39.52-30.636-40.218-31.451-6.28-5.812-13.378-10.586-19.761-14.27-10.362-5.982-18.411-8.936-18.835-9.091-11.321-2.659-21.665-6.729-30.202-11.659-14.49-8.366-23.865-16.792-23.836-27.372l-.192 67.791c-.03 10.58 9.246 21.415 23.736 29.781 8.538 4.929 18.882 9 30.202 11.659.424.155 8.473 3.109 18.835 9.091 6.382 3.685 13.48 8.459 19.761 14.27.698.815 13.963 16.293 40.218 31.451 25.188 14.542 61.687 28.04 108.025 25.109 77.85-4.94 94.421-48.727 94.496-75.077l.192-67.792c-.076 26.35-16.546 67.729-94.396 72.669z" fill="#d15241"/><path d="m333.66 124.626c6.026 19.71 1.947 83.122-92.692 89.128-46.337 2.932-82.837-10.567-108.024-25.108-26.255-15.158-39.52-30.636-40.218-31.451-6.281-5.812-13.378-10.586-19.761-14.27-10.362-5.982-18.411-8.936-18.835-9.091-11.321-2.659-21.665-6.73-30.203-11.659-41.725-24.09-40.213-68.652 102.226-68.66 91.456 0 142.649 14.601 171.439 31.225 25.229 14.567 33.254 30.689 36.068 39.886zm-93.51 84.899c26.655-1.686 47.756-8.413 62.712-19.981 25.449-19.692 27.972-49.816 23.579-64.179-3.112-10.189-11.59-24.672-34.012-37.617-1.686-.974-3.455-1.94-5.302-2.894-34.814-17.979-88.972-27.085-160.95-27.085-68.615 0-111.594 10.883-117.885 29.863-3.488 10.552 5.087 22.52 20.712 31.541 7.754 4.477 17.245 8.228 27.858 10.719 1.763.573 10.567 3.842 21.247 10.008 6.722 3.881 14.189 8.911 20.814 15.048.611.659 14.208 16.204 39.192 30.629 21.798 12.585 52.266 24.317 90.097 24.317 3.94.01 7.955-.116 11.938-.369" fill="#e56353"/></g></g></svg>